# xmcd
# 
# Track frame offsets:
#     150
#     17673
#     50532
#     85713
#     102804
#     123783
#     149892
#     173301
#     197736
#     218418
#     236238
#     249414
#     272418
#     287295
#     301848
# 
# Disc length: 4310
# 
# Revision: 0
# Processed by: cddbd v1.5.2PL0 Copyright (c) Steve Scherf et al.
# Submitted via: BonkEnc v1.0.8
# 
DISCID=bf10d40f
DTITLE=Eric Clapton - The Best Of Eric Clapton Cd2
DYEAR=2004
DGENRE=Country
TTITLE0=Change Of The World
TTITLE1=River Of Tears
TTITLE2=Broken Hearted
TTITLE3=Fall Like Rain
TTITLE4=Born In Time
TTITLE5=Pilgrim
TTITLE6=Bad Love
TTITLE7=Wonderful Tonight
TTITLE8=Layla
TTITLE9=Before You Accuse Me
TTITLE10=Blue Before Sun Rise
TTITLE11=Third Degree
TTITLE12=Reconsider Baby
TTITLE13=Hoochie Coochie Man
TTITLE14=Five Long Years
EXTD=
EXTT0=
EXTT1=
EXTT2=
EXTT3=
EXTT4=
EXTT5=
EXTT6=
EXTT7=
EXTT8=
EXTT9=
EXTT10=
EXTT11=
EXTT12=
EXTT13=
EXTT14=
PLAYORDER=
